
<svg width="43px" height="41px" viewBox="0 0 43 41" version="1.1" xmlns="http://www.w3.org/2000/svg" xmlns:xlink="http://www.w3.org/1999/xlink">
    <defs>
        <linearGradient x1="0.25781251%" y1="49.7500002%" x2="101.257813%" y2="49.7500002%" id="linearGradient-1">
            <stop stop-color="#3023AE" offset="0%"></stop>
            <stop stop-color="#85B6F1" offset="100%"></stop>
            <stop stop-color="#B4EC51" offset="100%"></stop>
        </linearGradient>
    </defs>
    <g id="Page-2" stroke="none" stroke-width="1" fill="none" fill-rule="evenodd">
        <g id="iPhone8" transform="translate(-24.000000, -87.000000)" fill="url(#linearGradient-1)" fill-rule="nonzero">
            <g id="Directions" transform="translate(24.000000, 87.000000)">
                <g id="Standing-Time">
                    <g id="icon-launch">
                        <path d="M11.3573849,8 L26.692549,8 C27.5698073,8.00346806 28.358476,8.50483197 28.6908226,9.27032079 C29.0231692,10.0358096 28.8337487,10.9146848 28.2108821,11.4971534 L19.0141217,20.1684576 C18.6136495,20.5537872 18.0679166,20.7743097 17.4957886,20.7819933 L2.1172436,20.7819933 C1.24785122,20.7623855 0.474927452,20.2550849 0.153581074,19.4931636 C-0.167765304,18.7312422 0.0245976259,17.8620165 0.642291463,17.2848399 L9.83905183,8.61353568 C10.239524,8.2282061 10.7852569,8.00768361 11.3573849,8 Z M35,30.2917963 C34.9975936,30.8383459 34.7632607,31.3612474 34.3492858,31.7438307 L25.1525255,40.4151349 C24.532828,40.9880131 23.6106122,41.1574631 22.8081141,40.8459024 C22.005616,40.5343416 21.4773353,39.801753 21.4651451,38.9835517 L21.4651451,24.5245609 C21.4618118,23.9809622 21.6881524,23.4584789 22.0941688,23.0725265 L31.2909292,14.4012222 C31.9106267,13.8283441 32.8328424,13.6588941 33.6353406,13.9704548 C34.4378387,14.2820155 34.9661193,15.0146042 34.9783095,15.8328055 L34.9783095,30.2917963 L35,30.2917963 Z" id="Shape"></path>
                        <path d="M9.39721683,22.4233574 C14.282331,9.93198899 26.6613972,1.46958152 40.7334371,1.00172022 C41.3413611,0.978220231 41.931956,1.19635596 42.362182,1.60329574 C42.792408,2.01023552 43.0230261,2.56886419 42.9981813,3.14388394 C42.5035477,16.4542672 33.5568981,28.1633099 20.3507393,32.7840147 C19.4171268,33.1106411 18.3682063,32.7968852 17.8029021,32.0218987 C15.7316171,29.2125364 13.1512885,26.7718695 10.1811668,24.8126939 C9.37986452,24.2747606 9.05869153,23.2958839 9.39721683,22.4233574 Z M10.6820236,27.7169735 C12.1481295,28.8937803 13.5100611,30.1819966 14.7542079,31.5687487 C15.2249734,32.0971466 15.3842587,32.813618 15.1783614,33.4766069 C14.9724641,34.1395959 14.4288203,34.660758 13.7307178,34.8643852 C12.0103832,35.3793284 10.2464959,35.7294898 8.50438498,35.9766625 C7.82345547,36.0744031 7.13377919,35.861696 6.64463606,35.4030865 C6.15549294,34.944477 5.92454659,34.2940292 6.02187691,33.6491192 C6.28319355,31.9601055 6.67516851,30.3122873 7.1760254,28.6850668 C7.39130468,28.0247494 7.94228914,27.5105306 8.64321612,27.3157776 C9.3441431,27.1210246 10.101613,27.2716885 10.6602473,27.7169735 L10.6820236,27.7169735 Z" id="Shape"></path>
                        <path d="M12.3167935,15.4199054 C18.1682249,18.7393243 23.0662877,23.3590758 26.5820959,28.8746437 C24.563007,30.0733761 22.4122383,31.0860983 20.1736831,31.8714748 C19.2327723,32.1992124 18.1756521,31.8843891 17.6059287,31.1067661 C15.5184519,28.2878465 12.917952,25.8388765 9.92461196,23.8730359 C9.1170457,23.3332726 8.793362,22.3510658 9.13453367,21.475571 C9.9685052,19.3467875 11.0438895,17.3420109 12.3167935,15.4199054 Z M35.1193308,0.621760095 C36.9628468,0.270407482 38.8502561,0.0637294753 40.7157187,0.00172607318 C41.328395,-0.0218538632 41.9236068,0.197023954 42.357196,0.605348126 C42.7907852,1.0136723 43.0232061,1.5742014 42.9981671,2.15117735 C42.9323273,3.92860821 42.7128611,5.68537127 42.3397685,7.42146653 C40.2345565,4.88763248 37.8099457,2.60430251 35.1193308,0.621760095 Z M26.5382027,15.5025766 C25.4287335,14.4577556 24.9954364,12.9348958 25.4015304,11.5076438 C25.8076243,10.0803918 26.9914138,8.96558101 28.506977,8.58314998 C30.0225401,8.20071895 31.6396267,8.608768 32.7490959,9.65358901 C33.8585652,10.69841 34.2918622,12.2212698 33.8857683,13.6485218 C33.4796744,15.0757739 32.2958848,16.1905846 30.7803217,16.5730156 C29.2647585,16.9554467 27.6476719,16.5473976 26.5382027,15.5025766 Z" id="Shape"></path>
                    </g>
                </g>
            </g>
        </g>
    </g>
</svg>